<svg xmlns="http://www.w3.org/2000/svg" width="48" height="48" viewBox="0 0 48 48"><circle cx="24" cy="24" r="24" fill="#e8f5fe"/><rect x="16.2" y="9.6" width="15.6" height="21.6" rx="1.8" fill="#002f6c"/><rect x="14.4" y="22.8" width="19.2" height="12" rx="1.2" transform="rotate(-90 24 28.8)" fill="#0091da"/><path fill="#005eb8" d="M18 28.8H30V30H18z"/><path fill="#005eb8" d="M27 26.4H28.2V36.599999999999994H27z"/><path fill="#002f6c" d="M27 26.4H28.2V30H27z"/><path d="M19.8 35.527a.106.106 0 00.106.106h.742V33.672l-.848.893v.962M20.873 33.6a.105.105 0 00-.106.106v.742h1.961l-.893-.848h-.962M22.8 34.673a.106.106 0 00-.106-.106h-.742v1.961l.848-.893v-.962M21.726 36.6a.106.106 0 00.107-.106v-.742H19.871l.894.848h.961" fill="#fff"/><rect x="23.7" y="34.8" width="2.4" height="1.2" rx="0.3" transform="rotate(-90 24.9 35.4)" fill="#ffb81c"/><path fill="#002f6c" d="M16.8 19.2H31.200000000000003V28.799999999999997H16.8z"/><rect x="17.4" y="10.8" width="13.2" height="15.6" rx="0.6" fill="#fff"/><path d="M19.2,26.4,30.6,15V25.8a.6.6,0,0,1-.6.6Z" fill="#e8f5fe"/><rect x="19.8" y="13.8" width="8.4" height="2.4" rx="0.3" fill="#0091da"/><rect x="19.8" y="17.4" width="8.4" height="2.4" rx="0.3" fill="#0091da"/><rect x="19.8" y="21" width="4.8" height="2.4" rx="0.3" fill="#0091da"/><rect x="25.8" y="21" width="2.4" height="2.4" rx="0.3" fill="#fba14b"/><path d="M28.2 19.5V17.7a.3.3 0 00-.088-.212L25.8 19.8h2.1A.3.3 0 0028.2 19.5zM24.6 23.1V21.3a.3.3 0 00-.088-.212L22.2 23.4h2.1A.3.3 0 0024.6 23.1z" fill="#005eb8"/></svg>