<?xml version="1.0" encoding="UTF-8"?><svg width="48" height="48" viewBox="0 0 48 48" fill="none" xmlns="http://www.w3.org/2000/svg"><path d="M14.508 16.9921L14.1 17.1571L13.701 17.3401H13.677C11.955 18.1863 10.5103 19.5064 9.51253 21.1453C8.51481 22.7842 8.00557 24.6738 8.04463 26.5921C8.0837 28.5104 8.66945 30.3777 9.73307 31.9746C10.7967 33.5715 12.294 34.8317 14.049 35.6071C15.0078 36.0377 15.9137 36.5772 16.749 37.2151C17.1254 37.4961 17.4869 37.7966 17.832 38.1151C18.9562 39.1583 19.9143 40.3673 20.673 41.7001L20.799 41.6641L26.934 38.1751C26.3769 35.4037 26.6002 32.5321 27.579 29.8801C28.2481 28.0627 28.3794 26.091 27.957 24.201C27.5347 22.311 26.5767 20.5827 25.1977 19.223C23.8186 17.8632 22.077 16.9297 20.1812 16.5341C18.2854 16.1384 16.3158 16.2974 14.508 16.9921V16.9921Z" fill="#e8f5fe"/><path d="M24.774 2.03995C24.774 1.57603 24.3979 1.19995 23.934 1.19995 23.4701 1.19995 23.094 1.57603 23.094 2.03995V5.40295C23.094 5.86687 23.4701 6.24295 23.934 6.24295 24.3979 6.24295 24.774 5.86687 24.774 5.40295V2.03995zM13.258 5.23799C12.9853 4.86267 12.46 4.77947 12.0847 5.05216 11.7093 5.32484 11.6261 5.85015 11.8988 6.22547L13.8967 8.97532C14.1694 9.35064 14.6947 9.43384 15.07 9.16116 15.4453 8.88847 15.5285 8.36316 15.2559 7.98784L13.258 5.23799zM5.82042 14.5905C5.3792 14.4472 4.90531 14.6886 4.76195 15.1298 4.6186 15.571 4.86005 16.0449 5.30127 16.1883L8.55673 17.2461C8.99795 17.3894 9.47184 17.148 9.61519 16.7067 9.75855 16.2655 9.5171 15.7916 9.07588 15.6483L5.82042 14.5905zM34.6106 5.23697L32.6568 7.92614C32.3841 8.30146 32.4673 8.82677 32.8426 9.09945 33.2179 9.37214 33.7432 9.28894 34.0159 8.91362L35.9697 6.22445C36.2424 5.84913 36.1592 5.32382 35.7839 5.05113 35.4086 4.77845 34.8833 4.86165 34.6106 5.23697zM42.0501 14.5946L38.9144 15.6135C38.4732 15.7568 38.2318 16.2307 38.3751 16.6719 38.5185 17.1131 38.9924 17.3546 39.4336 17.2112L42.5692 16.1924C43.0104 16.0491 43.2519 15.5752 43.1085 15.134 42.9652 14.6927 42.4913 14.4513 42.0501 14.5946z" fill="#ffb81c"/><path d="M20.64 36.48H20.508C20.5781 37.0424 20.6182 37.6082 20.628 38.175L27.36 37.335 20.64 36.48zM21.48 44.7748L20.64 43.1998V39.8398H24.672L27.36 40.6798 26.52 43.9348 21.48 44.7748z" fill="#fff"/><path d="M27.36 42.3599L20.64 43.1999V41.5199L27.36 40.6799V42.3599Z" fill="#005eb8"/><path d="M34.08 21.3601C34.0802 19.7122 33.6764 18.0893 32.904 16.6337C32.1316 15.178 31.014 13.9339 29.6493 13.0104C28.2845 12.0868 26.7141 11.512 25.0756 11.3361C23.4371 11.1603 21.7805 11.3888 20.2508 12.0018C18.7211 12.6147 17.365 13.5933 16.3013 14.8519C15.2376 16.1105 14.4987 17.6107 14.1492 19.2211C13.7998 20.8315 13.8505 22.5031 14.2969 24.0894C14.7434 25.6756 15.5719 27.1283 16.71 28.3201C18.8116 30.561 20.1423 33.4147 20.508 36.4651H20.64L27.642 35.5891C28.1931 32.8253 29.4982 30.2679 31.413 28.2001C33.134 26.3388 34.0869 23.8951 34.08 21.3601V21.3601Z" fill="#fba14b"/><path d="M30.3 20.5199C30.3 18.5611 29.7295 16.6447 28.6581 15.0048C27.5867 13.365 26.0609 12.0727 24.267 11.2859C23.967 11.2859 23.667 11.2859 23.367 11.3009C21.4507 11.4207 19.6086 12.0854 18.0574 13.2169C16.5062 14.3483 15.3105 15.8994 14.6111 17.6875C13.9117 19.4755 13.7376 21.4262 14.1095 23.3099C14.4813 25.1935 15.3836 26.9317 16.71 28.3199C18.8116 30.5608 20.1423 33.4145 20.508 36.4649H20.64L23.661 36.0869C24.0109 32.8226 25.4038 29.758 27.633 27.3479C29.3512 25.4896 30.3038 23.0508 30.3 20.5199V20.5199Z" fill="#ffb81c"/><path d="M27.36 40.68L20.64 39.84 27.36 39V40.68zM26.52 43.9351L20.64 43.2001 27.36 42.3601 26.52 43.9351z" fill="#e8f5fe"/><path d="M26.52 43.9351L21.48 44.7751C21.48 45.1092 21.6128 45.4297 21.8491 45.666 22.0854 45.9023 22.4059 46.0351 22.74 46.0351H25.26C25.5942 46.0351 25.9147 45.9023 26.151 45.666 26.3873 45.4297 26.52 45.1092 26.52 44.7751V43.9351zM27.408 37.3262H27.36L20.634 38.1662C20.634 38.2772 20.634 38.3852 20.634 38.4932V39.8462L27.36 39.0002V38.4872C27.36 38.1002 27.378 37.7102 27.408 37.3262z" fill="#005eb8"/><path d="M27.36 37.3201H27.411C27.4547 36.7461 27.5319 36.1751 27.642 35.6101L20.64 36.4801L27.36 37.3201Z" fill="#e8f5fe"/></svg>