<svg
  xmlns="http://www.w3.org/2000/svg"
  viewBox="0 0 48 48"
  class="pi3tbhujncofz0 amg7uhdj8o70b0 i7qjesoj8o70bj"
  aria-hidden="true"
>
  <path
    fill="#0d5fb6"
    d="M24.05 4c-11.046 0-20 8.954-20 20s8.954 20 20 20 20-8.954 20-20a20 20 0 0 0-20-20m0 37c-9.389 0-17-7.611-17-17s7.611-17 17-17 17 7.611 17 17c-.01 9.385-7.615 16.99-17 17m7.958-19.492a1.5 1.5 0 0 0 0-3H29.5V16a1.5 1.5 0 0 0-3 0v2.508h-5V16a1.5 1.5 0 0 0-3 0v2.508h-2.508a1.5 1.5 0 0 0 0 3H18.5v5h-2.508a1.5 1.5 0 0 0 0 3H18.5v2.508a1.5 1.5 0 0 0 3 0v-2.508h5v2.508a1.5 1.5 0 0 0 3 0v-2.508h2.508a1.5 1.5 0 0 0 0-3H29.5v-5zm-5.508 5h-5v-5h5z"
  ></path>
</svg>
