<svg width="48" height="48" viewBox="0 0 48 48" fill="none" xmlns="http://www.w3.org/2000/svg"><g clip-path="url(#clip0)"><path d="M24.003 48C37.2578 48 48.003 37.2548 48.003 24C48.003 10.7452 37.2578 0 24.003 0C10.7482 0 0.00299072 10.7452 0.00299072 24C0.00299072 37.2548 10.7482 48 24.003 48Z" fill="#EAF6FF" id="backgroundPrimary1"/><path d="M37.803 22.2H36.603V27H37.803V22.2Z" fill="#FF9D4D" id="shadowPrimary1"/><path d="M14.4 20.3999V29.9999C14.4 32.6519 18.699 34.7999 24 34.7999C29.301 34.7999 33.6 32.6519 33.6 29.9999V20.3999H14.4Z" fill="#005EB8" id="fillTertiary1"/><path d="M33.6 29.9999V20.3999H14.4V26.3279L23.292 30.1379C23.4346 30.1994 23.5851 30.2408 23.739 30.2609L19.71 34.2929C21.1141 34.6357 22.5547 34.806 24 34.7999C29.304 34.7999 33.6 32.6519 33.6 29.9999Z" fill="#002F6C" id="fillQuaternary1"/><path d="M23.295 14.7L7.84502 21.324C7.79091 21.3471 7.74476 21.3855 7.71233 21.4346C7.67989 21.4837 7.6626 21.5412 7.6626 21.6C7.6626 21.6588 7.67989 21.7164 7.71233 21.7654C7.74476 21.8145 7.79091 21.853 7.84502 21.876L23.295 28.5C23.5188 28.5957 23.7596 28.6451 24.003 28.6451C24.2464 28.6451 24.4873 28.5957 24.711 28.5L40.161 21.879C40.2151 21.856 40.2613 21.8175 40.2937 21.7684C40.3262 21.7194 40.3435 21.6618 40.3435 21.603C40.3435 21.5442 40.3262 21.4867 40.2937 21.4376C40.2613 21.3885 40.2151 21.3501 40.161 21.327L24.711 14.7C24.4873 14.6043 24.2464 14.5549 24.003 14.5549C23.7596 14.5549 23.5188 14.6043 23.295 14.7V14.7Z" fill="#3F9CF3" id="fillSecondary1"/><path d="M38.7 26.3999C38.7014 26.1199 38.6244 25.845 38.4777 25.6064C38.3309 25.3679 38.1203 25.1751 37.8697 25.0501C37.6191 24.9251 37.3384 24.8727 37.0596 24.8989C36.7807 24.9251 36.5148 25.0289 36.2919 25.1985C36.069 25.3681 35.898 25.5967 35.7983 25.8584C35.6986 26.1201 35.6742 26.4046 35.7278 26.6795C35.7814 26.9544 35.9109 27.2088 36.1016 27.4139C36.2924 27.619 36.5367 27.7665 36.807 27.8399L35.7 33.5999H38.7L37.593 27.8399C37.9096 27.754 38.1893 27.5666 38.3892 27.3065C38.5892 27.0464 38.6983 26.728 38.7 26.3999V26.3999Z" fill="#FFB619" id="accentPrimary1"/></g><defs><clipPath id="clip0"><rect width="48" height="48" fill="#FFFFFF" id="fillPrimary1"/></clipPath></defs></svg>