<svg xmlns="http://www.w3.org/2000/svg" width="48" height="48" viewBox="0 0 48 48"><circle cx="24" cy="24" r="24" fill="#EAF6FF" id="backgroundPrimary1"/><circle cx="24" cy="24" r="9.6" fill="#3F9CF3" id="fillSecondary1"/><path d="M30.788,17.212A9.6,9.6,0,0,1,17.212,30.788" fill="#005EB8" id="fillTertiary1"/><path d="M27.182,25.508a2.347,2.347,0,0,0-.865-1.491,4.207,4.207,0,0,0-1.687-.73c-.215-.062-.35-.093-.47-.122a4.5,4.5,0,0,1-.441-.123,2.859,2.859,0,0,1-.765-.305.746.746,0,0,1-.035-1.274,1.355,1.355,0,0,1,.885-.258,2.949,2.949,0,0,1,1.813.553.743.743,0,0,0,.839-1.226,4.694,4.694,0,0,0-1.784-.747l0-.405a.744.744,0,0,0-.743-.741h0a.744.744,0,0,0-.741.745v.392a2.492,2.492,0,0,0-1.238.562,2.22,2.22,0,0,0-.385,3.115,2.191,2.191,0,0,0,.475.452,3.673,3.673,0,0,0,1.22.549c.263.086.4.119.56.157.1.024.217.051.4.1a3.3,3.3,0,0,1,1.133.432.927.927,0,0,1,.357.554.787.787,0,0,1-.11.486,1.039,1.039,0,0,1-.35.316,2.249,2.249,0,0,1-1.5.165,3.175,3.175,0,0,1-1.678-.9.743.743,0,1,0-1.049,1.052,4.76,4.76,0,0,0,2.17,1.227v.568a.743.743,0,1,0,1.485.017.048.048,0,0,0,0-.017V28.2A3.133,3.133,0,0,0,26,27.782a2.435,2.435,0,0,0,.873-.835A2.253,2.253,0,0,0,27.182,25.508Z" fill="#FFFFFF" id="fillPrimary1"/><path d="M40.547,22.91a.622.622,0,0,0-.794.088l-.76.759A14.988,14.988,0,0,0,13.4,13.4a.6.6,0,0,0,0,.853h0a.6.6,0,0,0,.844,0h0a13.79,13.79,0,0,1,23.558,9.486L37.047,23a.622.622,0,0,0-.794-.088.6.6,0,0,0-.142.837.589.589,0,0,0,.065.077l1.8,1.8a.6.6,0,0,0,.848,0l1.8-1.8a.6.6,0,0,0,0-.848A.618.618,0,0,0,40.547,22.91Z" fill="#FFB619" id="accentPrimary1"/><path d="M7.453,25.09A.622.622,0,0,0,8.247,25l.759-.759A14.989,14.989,0,0,0,34.6,34.6a.6.6,0,0,0,0-.853h0a.6.6,0,0,0-.844,0h0a13.79,13.79,0,0,1-23.558-9.487l.747.747a.622.622,0,0,0,.794.088.6.6,0,0,0,.142-.837.589.589,0,0,0-.065-.077l-1.8-1.8a.6.6,0,0,0-.848,0l-1.8,1.8a.6.6,0,0,0,0,.848A.618.618,0,0,0,7.453,25.09Z" fill="#FFB619" id="accentPrimary2"/></svg>