<svg width="48" height="48" viewBox="0 0 48 48" fill="none" xmlns="http://www.w3.org/2000/svg"><path d="M24 48C37.2548 48 48 37.2548 48 24C48 10.7452 37.2548 0 24 0C10.7452 0 0 10.7452 0 24C0 37.2548 10.7452 48 24 48Z" fill="#EAF6FF" id="backgroundPrimary1"/><path d="M26.4 9.6001V21.6001H38.4C38.4 18.4175 37.1357 15.3653 34.8853 13.1148C32.6349 10.8644 29.5826 9.6001 26.4 9.6001V9.6001Z" fill="#FFB619" id="accentPrimary1"/><path d="M24 12C22.0264 11.9996 20.0832 12.4859 18.3425 13.416C16.6017 14.346 15.1173 15.6911 14.0206 17.3319C12.9239 18.9728 12.2489 20.8588 12.0553 22.8229C11.8617 24.787 12.1555 26.7685 12.9107 28.5919C13.6659 30.4152 14.8592 32.0242 16.3849 33.2762C17.9105 34.5282 19.7214 35.3847 21.6571 35.7696C23.5928 36.1545 25.5935 36.056 27.4821 35.4829C29.3706 34.9098 31.0887 33.8798 32.484 32.484L24 24V12Z" fill="#005EB8" id="fillTertiary1"/><path d="M24 12C21.627 12.0005 19.3074 12.7046 17.3345 14.0232C15.3616 15.3418 13.8239 17.2157 12.9159 19.4081C12.0078 21.6005 11.7702 24.0129 12.233 26.3404C12.6958 28.6678 13.8383 30.8058 15.516 32.484L24 24V12Z" fill="#3F9CF3" id="fillSecondary1"/><path d="M24 24L32.484 32.484C33.6005 31.3715 34.486 30.0492 35.0894 28.5932C35.6928 27.1371 36.0023 25.5761 36 24H24Z" fill="#002F6C" id="fillQuaternary1"/><path d="M33.102 17.4271C33.0583 17.1298 32.9027 16.8605 32.667 16.6741C32.4145 16.491 32.1245 16.366 31.818 16.3081C31.71 16.2751 31.641 16.2601 31.581 16.2451C31.521 16.2301 31.464 16.2181 31.359 16.1851C31.2237 16.1504 31.0936 16.0979 30.972 16.0291C30.922 15.9944 30.8794 15.9499 30.8469 15.8983C30.8145 15.8468 30.7927 15.7892 30.783 15.7291C30.7865 15.6647 30.8036 15.6017 30.833 15.5444C30.8625 15.487 30.9037 15.4365 30.954 15.3961C31.0843 15.3042 31.2418 15.2587 31.401 15.2671C31.7232 15.261 32.0388 15.3588 32.301 15.5461C32.3414 15.5771 32.3878 15.5996 32.4372 15.6121C32.4866 15.6246 32.538 15.6269 32.5883 15.6189C32.6386 15.6108 32.6868 15.5927 32.7298 15.5654C32.7729 15.5382 32.8099 15.5024 32.8387 15.4604C32.8675 15.4183 32.8874 15.3708 32.8972 15.3208C32.9071 15.2708 32.9066 15.2194 32.8959 15.1696C32.8851 15.1197 32.8643 15.0726 32.8348 15.0311C32.8053 14.9896 32.7676 14.9546 32.724 14.9281C32.4535 14.7415 32.1469 14.6138 31.824 14.5531V14.3401C31.8232 14.2409 31.7835 14.1459 31.7133 14.0758C31.6432 14.0056 31.5482 13.9659 31.449 13.9651V13.9651C31.3503 13.9667 31.2562 14.0068 31.1867 14.0768C31.1171 14.1469 31.0778 14.2414 31.077 14.3401V14.5381C30.8474 14.5742 30.6318 14.6716 30.453 14.8201C30.3147 14.9276 30.2036 15.0661 30.1286 15.2244C30.0536 15.3827 30.0169 15.5563 30.0212 15.7314C30.0256 15.9065 30.071 16.0782 30.1538 16.2325C30.2367 16.3869 30.3545 16.5196 30.498 16.6201C30.6798 16.748 30.883 16.8425 31.098 16.8991C31.23 16.9411 31.302 16.9591 31.38 16.9771L31.584 17.0281C31.7856 17.0663 31.9787 17.1405 32.154 17.2471C32.2459 17.3152 32.3099 17.4143 32.334 17.5261C32.3431 17.6122 32.323 17.6988 32.277 17.7721C32.2334 17.839 32.1736 17.8937 32.103 17.9311C31.867 18.045 31.5988 18.0736 31.344 18.0121C31.0235 17.9521 30.7292 17.795 30.501 17.5621C30.4709 17.5133 30.43 17.4721 30.3815 17.4416C30.3329 17.4112 30.278 17.3922 30.221 17.3862C30.164 17.3803 30.1064 17.3875 30.0526 17.4072C29.9988 17.427 29.9503 17.4589 29.9107 17.5003C29.8711 17.5418 29.8416 17.5918 29.8244 17.6464C29.8071 17.7011 29.8027 17.759 29.8113 17.8156C29.8199 17.8723 29.8414 17.9262 29.8741 17.9733C29.9068 18.0203 29.9499 18.0593 30 18.0871C30.3031 18.3874 30.6813 18.6009 31.095 18.7051V19.0051C31.1034 19.0984 31.1464 19.1851 31.2155 19.2483C31.2846 19.3115 31.3749 19.3466 31.4685 19.3466C31.5622 19.3466 31.6524 19.3115 31.7216 19.2483C31.7907 19.1851 31.8337 19.0984 31.842 19.0051V18.7801C32.0781 18.7619 32.3069 18.69 32.511 18.5701C32.6911 18.4695 32.8428 18.325 32.952 18.1501C33.0815 17.9327 33.1343 17.6781 33.102 17.4271V17.4271Z" fill="#FFFFFF" id="fillPrimary1"/></svg>